<?xml version="1.0" encoding="utf-8"?>
<!-- Generator: Adobe Illustrator 20.0.0, SVG Export Plug-In . SVG Version: 6.00 Build 0)  -->
<svg version="1.1"
	 id="Capa_1" xmlns:cc="http://creativecommons.org/ns#" xmlns:dc="http://purl.org/dc/elements/1.1/" xmlns:inkscape="http://www.inkscape.org/namespaces/inkscape" xmlns:rdf="http://www.w3.org/1999/02/22-rdf-syntax-ns#" xmlns:sodipodi="http://sodipodi.sourceforge.net/DTD/sodipodi-0.dtd" xmlns:svg="http://www.w3.org/2000/svg"
	 xmlns="http://www.w3.org/2000/svg" xmlns:xlink="http://www.w3.org/1999/xlink" x="0px" y="0px" viewBox="0 0 100 125"
	 style="enable-background:new 0 0 100 125;" xml:space="preserve">
<g transform="translate(0,-952.36218)">
	<path d="M50,960.4c-11,0-20,8.6-20,19.8c0,2.7,0.7,6.2,1.6,8.6c5.5,11.5,11.1,23,16.6,34.5c0.3,0.7,1.1,1.2,1.8,1.2
		s1.5-0.5,1.8-1.2c5.5-11.5,11.2-23,16.6-34.5c0.9-2.4,1.6-5.9,1.6-8.6C70,968.9,60.9,960.4,50,960.4L50,960.4z M50,964.4
		c8.9,0,16,6.7,16,15.8c0,1.9-0.7,5.4-1.3,7.1c-4.8,10.2-9.8,20.4-14.7,30.6c-4.7-10.3-10.1-20.3-14.7-30.6
		c-0.6-1.7-1.3-5.1-1.3-7.1C34,971.1,41.1,964.4,50,964.4z M50,969.4c-6.1,0-11,4.9-11,11c0,6.1,4.9,11,11,11c6.1,0,11-4.9,11-11
		C61,974.3,56.1,969.4,50,969.4z M50,973.4c3.9,0,7,3.1,7,7c0,3.9-3.1,7-7,7c-3.9,0-7-3.1-7-7C43,976.5,46.1,973.4,50,973.4z
		 M14,1000.4c-1.1,0-1.6,0.6-2,1.7l-6,40c-0.2,1.1,0.8,2.3,2,2.3h84c1.1,0,2.1-1.2,2-2.3l-6-40c-0.1-0.9-1-1.7-2-1.7H65l-1.9,4h21.2
		l1.2,8H59.6c0.5-0.8-1.6,2.8-2.1,3.8l19.4,24.2H47l-12.4-15.6l8.7-7.3l-1.8-3.7l-9.4,7.9l-13.9-17.3h18.8l-1.9-4L14,1000.4
		L14,1000.4z M15.3,1007.2l26.6,33.2H10.3L15.3,1007.2L15.3,1007.2z M62.8,1016.4h23.3l1.5,10H70.8L62.8,1016.4L62.8,1016.4z
		 M74,1030.4h14.2l1.5,10H82L74,1030.4z"/>
</g>
</svg>
