<?xml version="1.0" encoding="iso-8859-1"?>
<!-- Generator: Adobe Illustrator 19.0.0, SVG Export Plug-In . SVG Version: 6.00 Build 0)  -->
<svg version="1.1" className="fill-current" class="fill-current" id="Capa_1" xmlns="http://www.w3.org/2000/svg" xmlns:xlink="http://www.w3.org/1999/xlink" x="0px" y="0px"
	 viewBox="0 0 400.384 400.384" style="enable-background:new 0 0 400.384 400.384;" xml:space="preserve">
<g>
	<g>
		<path d="M191.488,38.144c-3.072-3.072-4.608-4.608-4.608-8.192c0-3.584,1.536-5.12,4.608-8.192
			c3.584-3.072,8.192-7.168,8.192-15.36c0-3.072-2.048-5.12-5.12-5.12c-3.072,0-5.12,2.048-5.12,5.12
			c0,3.584-1.536,5.12-4.608,8.192c-3.584,3.072-8.192,7.168-8.192,15.36s4.608,12.288,8.192,15.36
			c3.072,3.072,4.608,4.608,4.608,8.192c0.512,3.072-1.024,4.608-4.608,7.68c-3.584,3.072-8.192,7.168-8.192,15.36
			c0,3.072,2.048,5.12,5.12,5.12c3.072,0,5.12-2.048,5.12-5.12c0-3.584,1.536-5.12,4.608-7.68c3.584-3.072,8.192-7.168,8.192-15.36
			S195.072,41.216,191.488,38.144z"/>
	</g>
</g>
<g>
	<g>
		<path d="M227.84,38.144c-3.072-3.072-4.608-4.608-4.608-8.192c0-3.584,1.536-5.12,4.608-8.192
			c3.584-3.072,8.192-7.168,8.192-15.36c0-3.072-2.048-5.12-5.12-5.12c-3.072,0-5.12,2.048-5.12,5.12
			c0,3.584-1.536,5.12-4.608,8.192c-3.584,3.072-8.192,7.168-8.192,15.36s4.608,12.288,8.192,15.36
			c3.072,3.072,4.608,4.608,4.608,8.192c0,3.072-1.536,4.608-4.608,7.68c-3.584,3.072-8.192,7.168-8.192,15.36
			c0,3.072,2.048,5.12,5.12,5.12c3.072,0,5.12-2.048,5.12-5.12c0-3.584,1.536-5.12,4.608-7.68c3.584-3.072,8.192-7.168,8.192-15.36
			S231.424,41.216,227.84,38.144z"/>
	</g>
</g>
<g>
	<g>
		<path d="M340.992,290.56c-13.824-49.152-54.784-87.04-104.96-96.256c-2.56-0.512-5.632,1.536-6.144,4.096s1.536,5.632,4.096,6.144
			c46.08,8.192,83.968,43.008,96.768,88.576c0.512,2.048,2.56,3.584,5.12,3.584c0.512,0,1.024,0,1.536,0
			C339.968,296.192,341.504,293.12,340.992,290.56z"/>
	</g>
</g>
<g>
	<g>
		<path d="M395.264,352.512h-7.168v-13.824c0-99.84-78.848-182.272-177.152-187.392c9.216-4.096,15.36-13.312,15.36-23.552
			c0-14.336-11.776-26.112-26.112-26.112s-26.112,11.776-26.112,26.112c0,10.752,6.144,19.456,15.36,23.552
			c-98.816,5.632-177.152,87.552-177.152,187.392v13.824H5.12c-3.072,0-5.12,2.048-5.12,5.12v36.352c0,3.072,2.048,5.12,5.12,5.12
			h390.144c3.072,0,5.12-2.048,5.12-5.12v-36.352C400.384,354.56,397.824,352.512,395.264,352.512z M184.32,127.232
			c0-8.704,7.168-15.872,15.872-15.872s15.872,7.168,15.872,15.872c0,8.704-7.168,15.872-15.872,15.872
			C191.488,143.104,184.32,135.936,184.32,127.232z M22.528,338.688c0-98.304,79.36-177.664,177.664-177.664
			c97.792,0,177.664,79.872,177.664,177.664v13.824l-355.328,0V338.688z M9.728,388.864v-26.112h379.904v26.112H9.728z"/>
	</g>
</g>
<g>
</g>
<g>
</g>
<g>
</g>
<g>
</g>
<g>
</g>
<g>
</g>
<g>
</g>
<g>
</g>
<g>
</g>
<g>
</g>
<g>
</g>
<g>
</g>
<g>
</g>
<g>
</g>
<g>
</g>
</svg>
